ISO-10303-21;
HEADER;
/* Generated by software containing ST-Developer
 * from STEP Tools, Inc. (www.steptools.com) 
 */
/* OPTION: using custom schema-name function */

FILE_DESCRIPTION(
/* description */ (''),
/* implementation_level */ '2;1');

FILE_NAME(
/* name */ '\X2\585165997B50\X0\.stp',
/* time_stamp */ '2026-08-13T15:22:20+08:00',
/* author */ (''),
/* organization */ (''),
/* preprocessor_version */ 'ST-DEVELOPER v20',
/* originating_system */ 'SIEMENS PLM Software NX2506.1700',
/* authorisation */ '');

FILE_SCHEMA (('AUTOMOTIVE_DESIGN { 1 0 10303 214 3 1 1 1 }'));
ENDSEC;

DATA;
#10=SHAPE_REPRESENTATION_RELATIONSHIP('None',
'relationship between \X2\585165997B50\X0\-None and \X2\585165997B50\X0\-
None',#22,#11);
#11=ADVANCED_BREP_SHAPE_REPRESENTATION('\X2\585165997B50\X0\-None',(#39,
#40),#712);
#12=SHAPE_DEFINITION_REPRESENTATION(#13,#22);
#13=PRODUCT_DEFINITION_SHAPE('','',#14);
#14=PRODUCT_DEFINITION(' ','',#16,#15);
#15=PRODUCT_DEFINITION_CONTEXT('part definition',#21,'design');
#16=PRODUCT_DEFINITION_FORMATION_WITH_SPECIFIED_SOURCE(' ',' ',#18,
 .NOT_KNOWN.);
#17=PRODUCT_RELATED_PRODUCT_CATEGORY('part','',(#18));
#18=PRODUCT('\X2\585165997B50\X0\','\X2\585165997B50\X0\',' ',(#19));
#19=PRODUCT_CONTEXT(' ',#21,'mechanical');
#20=APPLICATION_PROTOCOL_DEFINITION('international standard',
'automotive_design',2010,#21);
#21=APPLICATION_CONTEXT(
'core data for automotive mechanical design processes');
#22=SHAPE_REPRESENTATION('\X2\585165997B50\X0\-None',(#462),#712);
#23=PRESENTATION_LAYER_ASSIGNMENT('1','Layer 1',(#39,#40));
#24=STYLED_ITEM('',(#26),#39);
#25=STYLED_ITEM('',(#27),#40);
#26=PRESENTATION_STYLE_ASSIGNMENT((#28));
#27=PRESENTATION_STYLE_ASSIGNMENT((#29));
#28=SURFACE_STYLE_USAGE(.BOTH.,#30);
#29=SURFACE_STYLE_USAGE(.BOTH.,#31);
#30=SURFACE_SIDE_STYLE('',(#32));
#31=SURFACE_SIDE_STYLE('',(#33));
#32=SURFACE_STYLE_FILL_AREA(#34);
#33=SURFACE_STYLE_FILL_AREA(#35);
#34=FILL_AREA_STYLE('',(#36));
#35=FILL_AREA_STYLE('',(#37));
#36=FILL_AREA_STYLE_COLOUR('',#38);
#37=FILL_AREA_STYLE_COLOUR('',#38);
#38=COLOUR_RGB('orange',1.,0.6,0.);
#39=MANIFOLD_SOLID_BREP('',#41);
#40=MANIFOLD_SOLID_BREP('',#42);
#41=CLOSED_SHELL('',(#49,#50,#51,#52,#53,#54,#55,#56,#57,#58,#59,#60,#61,
#62));
#42=CLOSED_SHELL('',(#63,#64,#65,#66,#67,#68,#69,#70,#71,#72));
#43=FACE_BOUND('',#127,.T.);
#44=FACE_BOUND('',#128,.T.);
#45=FACE_BOUND('',#136,.T.);
#46=FACE_BOUND('',#137,.T.);
#47=FACE_BOUND('',#139,.T.);
#48=FACE_BOUND('',#140,.T.);
#49=ADVANCED_FACE('',(#97),#73,.F.);
#50=ADVANCED_FACE('',(#98),#74,.F.);
#51=ADVANCED_FACE('',(#99),#75,.F.);
#52=ADVANCED_FACE('',(#100),#76,.T.);
#53=ADVANCED_FACE('',(#101),#77,.T.);
#54=ADVANCED_FACE('',(#102),#78,.F.);
#55=ADVANCED_FACE('',(#103),#79,.F.);
#56=ADVANCED_FACE('',(#104),#80,.F.);
#57=ADVANCED_FACE('',(#105),#81,.F.);
#58=ADVANCED_FACE('',(#43,#44),#82,.F.);
#59=ADVANCED_FACE('',(#106),#83,.F.);
#60=ADVANCED_FACE('',(#107),#84,.F.);
#61=ADVANCED_FACE('',(#108),#85,.T.);
#62=ADVANCED_FACE('',(#109),#86,.T.);
#63=ADVANCED_FACE('',(#110),#87,.F.);
#64=ADVANCED_FACE('',(#111),#88,.F.);
#65=ADVANCED_FACE('',(#112),#89,.F.);
#66=ADVANCED_FACE('',(#45,#46),#90,.F.);
#67=ADVANCED_FACE('',(#113),#91,.F.);
#68=ADVANCED_FACE('',(#47,#48),#92,.T.);
#69=ADVANCED_FACE('',(#114),#93,.T.);
#70=ADVANCED_FACE('',(#115),#94,.T.);
#71=ADVANCED_FACE('',(#116),#95,.T.);
#72=ADVANCED_FACE('',(#117),#96,.T.);
#73=PLANE('',#463);
#74=PLANE('',#464);
#75=PLANE('',#465);
#76=PLANE('',#466);
#77=PLANE('',#467);
#78=PLANE('',#468);
#79=PLANE('',#469);
#80=PLANE('',#470);
#81=PLANE('',#471);
#82=PLANE('',#472);
#83=PLANE('',#473);
#84=PLANE('',#474);
#85=PLANE('',#475);
#86=PLANE('',#476);
#87=PLANE('',#477);
#88=PLANE('',#478);
#89=PLANE('',#479);
#90=PLANE('',#480);
#91=PLANE('',#481);
#92=PLANE('',#482);
#93=PLANE('',#483);
#94=PLANE('',#484);
#95=PLANE('',#485);
#96=PLANE('',#486);
#97=FACE_OUTER_BOUND('',#118,.T.);
#98=FACE_OUTER_BOUND('',#119,.T.);
#99=FACE_OUTER_BOUND('',#120,.T.);
#100=FACE_OUTER_BOUND('',#121,.T.);
#101=FACE_OUTER_BOUND('',#122,.T.);
#102=FACE_OUTER_BOUND('',#123,.T.);
#103=FACE_OUTER_BOUND('',#124,.T.);
#104=FACE_OUTER_BOUND('',#125,.T.);
#105=FACE_OUTER_BOUND('',#126,.T.);
#106=FACE_OUTER_BOUND('',#129,.T.);
#107=FACE_OUTER_BOUND('',#130,.T.);
#108=FACE_OUTER_BOUND('',#131,.T.);
#109=FACE_OUTER_BOUND('',#132,.T.);
#110=FACE_OUTER_BOUND('',#133,.T.);
#111=FACE_OUTER_BOUND('',#134,.T.);
#112=FACE_OUTER_BOUND('',#135,.T.);
#113=FACE_OUTER_BOUND('',#138,.T.);
#114=FACE_OUTER_BOUND('',#141,.T.);
#115=FACE_OUTER_BOUND('',#142,.T.);
#116=FACE_OUTER_BOUND('',#143,.T.);
#117=FACE_OUTER_BOUND('',#144,.T.);
#118=EDGE_LOOP('',(#145,#146,#147,#148));
#119=EDGE_LOOP('',(#149,#150,#151,#152));
#120=EDGE_LOOP('',(#153,#154,#155,#156));
#121=EDGE_LOOP('',(#157,#158,#159,#160));
#122=EDGE_LOOP('',(#161,#162,#163,#164));
#123=EDGE_LOOP('',(#165,#166,#167,#168,#169));
#124=EDGE_LOOP('',(#170,#171,#172,#173));
#125=EDGE_LOOP('',(#174,#175,#176,#177));
#126=EDGE_LOOP('',(#178,#179,#180,#181));
#127=EDGE_LOOP('',(#182,#183,#184,#185));
#128=EDGE_LOOP('',(#186,#187,#188,#189));
#129=EDGE_LOOP('',(#190,#191,#192,#193));
#130=EDGE_LOOP('',(#194,#195,#196,#197));
#131=EDGE_LOOP('',(#198,#199,#200,#201,#202));
#132=EDGE_LOOP('',(#203,#204,#205,#206,#207,#208));
#133=EDGE_LOOP('',(#209,#210,#211,#212));
#134=EDGE_LOOP('',(#213,#214,#215,#216));
#135=EDGE_LOOP('',(#217,#218,#219,#220));
#136=EDGE_LOOP('',(#221,#222,#223,#224));
#137=EDGE_LOOP('',(#225,#226,#227,#228));
#138=EDGE_LOOP('',(#229,#230,#231,#232));
#139=EDGE_LOOP('',(#233,#234,#235,#236));
#140=EDGE_LOOP('',(#237,#238,#239,#240));
#141=EDGE_LOOP('',(#241,#242,#243,#244));
#142=EDGE_LOOP('',(#245,#246,#247,#248));
#143=EDGE_LOOP('',(#249,#250,#251,#252));
#144=EDGE_LOOP('',(#253,#254,#255,#256));
#145=ORIENTED_EDGE('',*,*,#294,.F.);
#146=ORIENTED_EDGE('',*,*,#295,.F.);
#147=ORIENTED_EDGE('',*,*,#296,.T.);
#148=ORIENTED_EDGE('',*,*,#297,.T.);
#149=ORIENTED_EDGE('',*,*,#298,.F.);
#150=ORIENTED_EDGE('',*,*,#299,.F.);
#151=ORIENTED_EDGE('',*,*,#300,.T.);
#152=ORIENTED_EDGE('',*,*,#301,.T.);
#153=ORIENTED_EDGE('',*,*,#302,.F.);
#154=ORIENTED_EDGE('',*,*,#300,.F.);
#155=ORIENTED_EDGE('',*,*,#303,.F.);
#156=ORIENTED_EDGE('',*,*,#304,.T.);
#157=ORIENTED_EDGE('',*,*,#295,.T.);
#158=ORIENTED_EDGE('',*,*,#305,.T.);
#159=ORIENTED_EDGE('',*,*,#301,.F.);
#160=ORIENTED_EDGE('',*,*,#306,.T.);
#161=ORIENTED_EDGE('',*,*,#307,.T.);
#162=ORIENTED_EDGE('',*,*,#308,.T.);
#163=ORIENTED_EDGE('',*,*,#297,.F.);
#164=ORIENTED_EDGE('',*,*,#309,.T.);
#165=ORIENTED_EDGE('',*,*,#310,.F.);
#166=ORIENTED_EDGE('',*,*,#311,.T.);
#167=ORIENTED_EDGE('',*,*,#307,.F.);
#168=ORIENTED_EDGE('',*,*,#312,.T.);
#169=ORIENTED_EDGE('',*,*,#304,.F.);
#170=ORIENTED_EDGE('',*,*,#313,.T.);
#171=ORIENTED_EDGE('',*,*,#314,.T.);
#172=ORIENTED_EDGE('',*,*,#315,.T.);
#173=ORIENTED_EDGE('',*,*,#316,.T.);
#174=ORIENTED_EDGE('',*,*,#315,.F.);
#175=ORIENTED_EDGE('',*,*,#317,.T.);
#176=ORIENTED_EDGE('',*,*,#318,.T.);
#177=ORIENTED_EDGE('',*,*,#319,.T.);
#178=ORIENTED_EDGE('',*,*,#320,.F.);
#179=ORIENTED_EDGE('',*,*,#321,.T.);
#180=ORIENTED_EDGE('',*,*,#313,.F.);
#181=ORIENTED_EDGE('',*,*,#322,.T.);
#182=ORIENTED_EDGE('',*,*,#318,.F.);
#183=ORIENTED_EDGE('',*,*,#323,.F.);
#184=ORIENTED_EDGE('',*,*,#320,.T.);
#185=ORIENTED_EDGE('',*,*,#324,.T.);
#186=ORIENTED_EDGE('',*,*,#310,.T.);
#187=ORIENTED_EDGE('',*,*,#303,.T.);
#188=ORIENTED_EDGE('',*,*,#299,.T.);
#189=ORIENTED_EDGE('',*,*,#325,.T.);
#190=ORIENTED_EDGE('',*,*,#323,.T.);
#191=ORIENTED_EDGE('',*,*,#317,.F.);
#192=ORIENTED_EDGE('',*,*,#314,.F.);
#193=ORIENTED_EDGE('',*,*,#321,.F.);
#194=ORIENTED_EDGE('',*,*,#316,.F.);
#195=ORIENTED_EDGE('',*,*,#319,.F.);
#196=ORIENTED_EDGE('',*,*,#324,.F.);
#197=ORIENTED_EDGE('',*,*,#322,.F.);
#198=ORIENTED_EDGE('',*,*,#302,.T.);
#199=ORIENTED_EDGE('',*,*,#312,.F.);
#200=ORIENTED_EDGE('',*,*,#309,.F.);
#201=ORIENTED_EDGE('',*,*,#296,.F.);
#202=ORIENTED_EDGE('',*,*,#306,.F.);
#203=ORIENTED_EDGE('',*,*,#294,.T.);
#204=ORIENTED_EDGE('',*,*,#308,.F.);
#205=ORIENTED_EDGE('',*,*,#311,.F.);
#206=ORIENTED_EDGE('',*,*,#325,.F.);
#207=ORIENTED_EDGE('',*,*,#298,.T.);
#208=ORIENTED_EDGE('',*,*,#305,.F.);
#209=ORIENTED_EDGE('',*,*,#326,.F.);
#210=ORIENTED_EDGE('',*,*,#327,.T.);
#211=ORIENTED_EDGE('',*,*,#328,.T.);
#212=ORIENTED_EDGE('',*,*,#329,.F.);
#213=ORIENTED_EDGE('',*,*,#330,.F.);
#214=ORIENTED_EDGE('',*,*,#329,.T.);
#215=ORIENTED_EDGE('',*,*,#331,.T.);
#216=ORIENTED_EDGE('',*,*,#332,.F.);
#217=ORIENTED_EDGE('',*,*,#333,.F.);
#218=ORIENTED_EDGE('',*,*,#332,.T.);
#219=ORIENTED_EDGE('',*,*,#334,.T.);
#220=ORIENTED_EDGE('',*,*,#335,.F.);
#221=ORIENTED_EDGE('',*,*,#336,.T.);
#222=ORIENTED_EDGE('',*,*,#326,.T.);
#223=ORIENTED_EDGE('',*,*,#330,.T.);
#224=ORIENTED_EDGE('',*,*,#333,.T.);
#225=ORIENTED_EDGE('',*,*,#337,.T.);
#226=ORIENTED_EDGE('',*,*,#338,.T.);
#227=ORIENTED_EDGE('',*,*,#339,.T.);
#228=ORIENTED_EDGE('',*,*,#340,.T.);
#229=ORIENTED_EDGE('',*,*,#336,.F.);
#230=ORIENTED_EDGE('',*,*,#335,.T.);
#231=ORIENTED_EDGE('',*,*,#341,.T.);
#232=ORIENTED_EDGE('',*,*,#327,.F.);
#233=ORIENTED_EDGE('',*,*,#341,.F.);
#234=ORIENTED_EDGE('',*,*,#334,.F.);
#235=ORIENTED_EDGE('',*,*,#331,.F.);
#236=ORIENTED_EDGE('',*,*,#328,.F.);
#237=ORIENTED_EDGE('',*,*,#342,.F.);
#238=ORIENTED_EDGE('',*,*,#343,.F.);
#239=ORIENTED_EDGE('',*,*,#344,.F.);
#240=ORIENTED_EDGE('',*,*,#345,.F.);
#241=ORIENTED_EDGE('',*,*,#346,.T.);
#242=ORIENTED_EDGE('',*,*,#345,.T.);
#243=ORIENTED_EDGE('',*,*,#347,.F.);
#244=ORIENTED_EDGE('',*,*,#337,.F.);
#245=ORIENTED_EDGE('',*,*,#348,.T.);
#246=ORIENTED_EDGE('',*,*,#342,.T.);
#247=ORIENTED_EDGE('',*,*,#346,.F.);
#248=ORIENTED_EDGE('',*,*,#340,.F.);
#249=ORIENTED_EDGE('',*,*,#338,.F.);
#250=ORIENTED_EDGE('',*,*,#347,.T.);
#251=ORIENTED_EDGE('',*,*,#344,.T.);
#252=ORIENTED_EDGE('',*,*,#349,.F.);
#253=ORIENTED_EDGE('',*,*,#339,.F.);
#254=ORIENTED_EDGE('',*,*,#349,.T.);
#255=ORIENTED_EDGE('',*,*,#343,.T.);
#256=ORIENTED_EDGE('',*,*,#348,.F.);
#257=VERTEX_POINT('',#595);
#258=VERTEX_POINT('',#596);
#259=VERTEX_POINT('',#598);
#260=VERTEX_POINT('',#600);
#261=VERTEX_POINT('',#604);
#262=VERTEX_POINT('',#605);
#263=VERTEX_POINT('',#607);
#264=VERTEX_POINT('',#609);
#265=VERTEX_POINT('',#613);
#266=VERTEX_POINT('',#615);
#267=VERTEX_POINT('',#622);
#268=VERTEX_POINT('',#623);
#269=VERTEX_POINT('',#628);
#270=VERTEX_POINT('',#633);
#271=VERTEX_POINT('',#634);
#272=VERTEX_POINT('',#636);
#273=VERTEX_POINT('',#638);
#274=VERTEX_POINT('',#642);
#275=VERTEX_POINT('',#644);
#276=VERTEX_POINT('',#648);
#277=VERTEX_POINT('',#649);
#278=VERTEX_POINT('',#662);
#279=VERTEX_POINT('',#663);
#280=VERTEX_POINT('',#665);
#281=VERTEX_POINT('',#667);
#282=VERTEX_POINT('',#671);
#283=VERTEX_POINT('',#673);
#284=VERTEX_POINT('',#677);
#285=VERTEX_POINT('',#679);
#286=VERTEX_POINT('',#684);
#287=VERTEX_POINT('',#685);
#288=VERTEX_POINT('',#687);
#289=VERTEX_POINT('',#689);
#290=VERTEX_POINT('',#695);
#291=VERTEX_POINT('',#696);
#292=VERTEX_POINT('',#698);
#293=VERTEX_POINT('',#700);
#294=EDGE_CURVE('',#257,#258,#350,.T.);
#295=EDGE_CURVE('',#259,#257,#351,.T.);
#296=EDGE_CURVE('',#259,#260,#352,.T.);
#297=EDGE_CURVE('',#260,#258,#353,.T.);
#298=EDGE_CURVE('',#261,#262,#354,.T.);
#299=EDGE_CURVE('',#263,#261,#355,.T.);
#300=EDGE_CURVE('',#263,#264,#356,.T.);
#301=EDGE_CURVE('',#264,#262,#357,.T.);
#302=EDGE_CURVE('',#264,#265,#358,.T.);
#303=EDGE_CURVE('',#266,#263,#359,.T.);
#304=EDGE_CURVE('',#266,#265,#360,.T.);
#305=EDGE_CURVE('',#257,#262,#361,.T.);
#306=EDGE_CURVE('',#264,#259,#362,.T.);
#307=EDGE_CURVE('',#267,#268,#363,.T.);
#308=EDGE_CURVE('',#268,#258,#364,.T.);
#309=EDGE_CURVE('',#260,#267,#365,.T.);
#310=EDGE_CURVE('',#269,#266,#366,.T.);
#311=EDGE_CURVE('',#269,#268,#367,.T.);
#312=EDGE_CURVE('',#267,#265,#368,.T.);
#313=EDGE_CURVE('',#270,#271,#369,.T.);
#314=EDGE_CURVE('',#271,#272,#370,.T.);
#315=EDGE_CURVE('',#272,#273,#371,.T.);
#316=EDGE_CURVE('',#273,#270,#372,.T.);
#317=EDGE_CURVE('',#272,#274,#373,.T.);
#318=EDGE_CURVE('',#274,#275,#374,.T.);
#319=EDGE_CURVE('',#275,#273,#375,.T.);
#320=EDGE_CURVE('',#276,#277,#376,.T.);
#321=EDGE_CURVE('',#276,#271,#377,.T.);
#322=EDGE_CURVE('',#270,#277,#378,.T.);
#323=EDGE_CURVE('',#276,#274,#379,.T.);
#324=EDGE_CURVE('',#277,#275,#380,.T.);
#325=EDGE_CURVE('',#261,#269,#381,.T.);
#326=EDGE_CURVE('',#278,#279,#382,.T.);
#327=EDGE_CURVE('',#278,#280,#383,.T.);
#328=EDGE_CURVE('',#280,#281,#384,.T.);
#329=EDGE_CURVE('',#279,#281,#385,.T.);
#330=EDGE_CURVE('',#279,#282,#386,.T.);
#331=EDGE_CURVE('',#281,#283,#387,.T.);
#332=EDGE_CURVE('',#282,#283,#388,.T.);
#333=EDGE_CURVE('',#282,#284,#389,.T.);
#334=EDGE_CURVE('',#283,#285,#390,.T.);
#335=EDGE_CURVE('',#284,#285,#391,.T.);
#336=EDGE_CURVE('',#284,#278,#392,.T.);
#337=EDGE_CURVE('',#286,#287,#393,.T.);
#338=EDGE_CURVE('',#287,#288,#394,.T.);
#339=EDGE_CURVE('',#288,#289,#395,.T.);
#340=EDGE_CURVE('',#289,#286,#396,.T.);
#341=EDGE_CURVE('',#285,#280,#397,.T.);
#342=EDGE_CURVE('',#290,#291,#398,.T.);
#343=EDGE_CURVE('',#292,#290,#399,.T.);
#344=EDGE_CURVE('',#293,#292,#400,.T.);
#345=EDGE_CURVE('',#291,#293,#401,.T.);
#346=EDGE_CURVE('',#286,#291,#402,.T.);
#347=EDGE_CURVE('',#287,#293,#403,.T.);
#348=EDGE_CURVE('',#289,#290,#404,.T.);
#349=EDGE_CURVE('',#288,#292,#405,.T.);
#350=LINE('',#594,#406);
#351=LINE('',#597,#407);
#352=LINE('',#599,#408);
#353=LINE('',#601,#409);
#354=LINE('',#603,#410);
#355=LINE('',#606,#411);
#356=LINE('',#608,#412);
#357=LINE('',#610,#413);
#358=LINE('',#612,#414);
#359=LINE('',#614,#415);
#360=LINE('',#616,#416);
#361=LINE('',#618,#417);
#362=LINE('',#619,#418);
#363=LINE('',#621,#419);
#364=LINE('',#624,#420);
#365=LINE('',#625,#421);
#366=LINE('',#627,#422);
#367=LINE('',#629,#423);
#368=LINE('',#630,#424);
#369=LINE('',#632,#425);
#370=LINE('',#635,#426);
#371=LINE('',#637,#427);
#372=LINE('',#639,#428);
#373=LINE('',#641,#429);
#374=LINE('',#643,#430);
#375=LINE('',#645,#431);
#376=LINE('',#647,#432);
#377=LINE('',#650,#433);
#378=LINE('',#651,#434);
#379=LINE('',#653,#435);
#380=LINE('',#654,#436);
#381=LINE('',#655,#437);
#382=LINE('',#661,#438);
#383=LINE('',#664,#439);
#384=LINE('',#666,#440);
#385=LINE('',#668,#441);
#386=LINE('',#670,#442);
#387=LINE('',#672,#443);
#388=LINE('',#674,#444);
#389=LINE('',#676,#445);
#390=LINE('',#678,#446);
#391=LINE('',#680,#447);
#392=LINE('',#682,#448);
#393=LINE('',#683,#449);
#394=LINE('',#686,#450);
#395=LINE('',#688,#451);
#396=LINE('',#690,#452);
#397=LINE('',#692,#453);
#398=LINE('',#694,#454);
#399=LINE('',#697,#455);
#400=LINE('',#699,#456);
#401=LINE('',#701,#457);
#402=LINE('',#703,#458);
#403=LINE('',#704,#459);
#404=LINE('',#706,#460);
#405=LINE('',#708,#461);
#406=VECTOR('',#489,1.);
#407=VECTOR('',#490,1.);
#408=VECTOR('',#491,1.);
#409=VECTOR('',#492,1.);
#410=VECTOR('',#495,1.);
#411=VECTOR('',#496,1.);
#412=VECTOR('',#497,1.);
#413=VECTOR('',#498,1.);
#414=VECTOR('',#501,1.);
#415=VECTOR('',#502,1.);
#416=VECTOR('',#503,1.);
#417=VECTOR('',#506,1.);
#418=VECTOR('',#507,1.);
#419=VECTOR('',#510,1.);
#420=VECTOR('',#511,1.);
#421=VECTOR('',#512,1.);
#422=VECTOR('',#515,1.);
#423=VECTOR('',#516,1.);
#424=VECTOR('',#517,1.);
#425=VECTOR('',#520,1.);
#426=VECTOR('',#521,1.);
#427=VECTOR('',#522,1.);
#428=VECTOR('',#523,1.);
#429=VECTOR('',#526,1.);
#430=VECTOR('',#527,1.);
#431=VECTOR('',#528,1.);
#432=VECTOR('',#531,1.);
#433=VECTOR('',#532,1.);
#434=VECTOR('',#533,1.);
#435=VECTOR('',#536,1.);
#436=VECTOR('',#537,1.);
#437=VECTOR('',#538,1.);
#438=VECTOR('',#549,1.);
#439=VECTOR('',#550,1.);
#440=VECTOR('',#551,1.);
#441=VECTOR('',#552,1.);
#442=VECTOR('',#555,1.);
#443=VECTOR('',#556,1.);
#444=VECTOR('',#557,1.);
#445=VECTOR('',#560,1.);
#446=VECTOR('',#561,1.);
#447=VECTOR('',#562,1.);
#448=VECTOR('',#565,1.);
#449=VECTOR('',#566,1.);
#450=VECTOR('',#567,1.);
#451=VECTOR('',#568,1.);
#452=VECTOR('',#569,1.);
#453=VECTOR('',#572,1.);
#454=VECTOR('',#575,1.);
#455=VECTOR('',#576,1.);
#456=VECTOR('',#577,1.);
#457=VECTOR('',#578,1.);
#458=VECTOR('',#581,1.);
#459=VECTOR('',#582,1.);
#460=VECTOR('',#585,1.);
#461=VECTOR('',#588,1.);
#462=AXIS2_PLACEMENT_3D('',#593,#487,#488);
#463=AXIS2_PLACEMENT_3D('',#602,#493,#494);
#464=AXIS2_PLACEMENT_3D('',#611,#499,#500);
#465=AXIS2_PLACEMENT_3D('',#617,#504,#505);
#466=AXIS2_PLACEMENT_3D('',#620,#508,#509);
#467=AXIS2_PLACEMENT_3D('',#626,#513,#514);
#468=AXIS2_PLACEMENT_3D('',#631,#518,#519);
#469=AXIS2_PLACEMENT_3D('',#640,#524,#525);
#470=AXIS2_PLACEMENT_3D('',#646,#529,#530);
#471=AXIS2_PLACEMENT_3D('',#652,#534,#535);
#472=AXIS2_PLACEMENT_3D('',#656,#539,#540);
#473=AXIS2_PLACEMENT_3D('',#657,#541,#542);
#474=AXIS2_PLACEMENT_3D('',#658,#543,#544);
#475=AXIS2_PLACEMENT_3D('',#659,#545,#546);
#476=AXIS2_PLACEMENT_3D('',#660,#547,#548);
#477=AXIS2_PLACEMENT_3D('',#669,#553,#554);
#478=AXIS2_PLACEMENT_3D('',#675,#558,#559);
#479=AXIS2_PLACEMENT_3D('',#681,#563,#564);
#480=AXIS2_PLACEMENT_3D('',#691,#570,#571);
#481=AXIS2_PLACEMENT_3D('',#693,#573,#574);
#482=AXIS2_PLACEMENT_3D('',#702,#579,#580);
#483=AXIS2_PLACEMENT_3D('',#705,#583,#584);
#484=AXIS2_PLACEMENT_3D('',#707,#586,#587);
#485=AXIS2_PLACEMENT_3D('',#709,#589,#590);
#486=AXIS2_PLACEMENT_3D('',#710,#591,#592);
#487=DIRECTION('',(0.,0.,1.));
#488=DIRECTION('',(1.,0.,0.));
#489=DIRECTION('',(-1.,0.,0.));
#490=DIRECTION('',(0.,1.,0.));
#491=DIRECTION('',(-1.,0.,0.));
#492=DIRECTION('',(0.,1.,0.));
#493=DIRECTION('',(0.,0.,1.));
#494=DIRECTION('',(1.,0.,0.));
#495=DIRECTION('',(0.,-0.0356915305124127,-0.99936285434755));
#496=DIRECTION('',(0.,1.,0.));
#497=DIRECTION('',(0.,0.,-1.));
#498=DIRECTION('',(0.,1.,0.));
#499=DIRECTION('',(-1.,0.,0.));
#500=DIRECTION('',(0.,0.,1.));
#501=DIRECTION('',(-1.,0.,0.));
#502=DIRECTION('',(1.,0.,0.));
#503=DIRECTION('',(0.,0.,-1.));
#504=DIRECTION('',(0.,1.,0.));
#505=DIRECTION('',(0.,0.,1.));
#506=DIRECTION('',(0.0712471076506315,0.0356008274728751,0.996823169240496));
#507=DIRECTION('',(-0.0712470499879097,0.0356235249939546,-0.9968223624774));
#508=DIRECTION('',(0.997455466613932,0.,-0.071292300579952));
#509=DIRECTION('',(-0.071292300579952,0.,-0.997455466613933));
#510=DIRECTION('',(0.,1.,0.));
#511=DIRECTION('',(0.0713832930000265,-0.0356004799488238,-0.99681343856706));
#512=DIRECTION('',(-0.0713832352282131,-0.0356231772489002,0.99681263182759));
#513=DIRECTION('',(-0.997445717412067,0.,-0.0714285714285715));
#514=DIRECTION('',(-0.0714285714285715,0.,0.997445717412067));
#515=DIRECTION('',(0.,-1.,0.));
#516=DIRECTION('',(0.,-0.0356915305124127,-0.99936285434755));
#517=DIRECTION('',(0.,-0.0357142857142855,0.999362041402373));
#518=DIRECTION('',(1.,0.,0.));
#519=DIRECTION('',(0.,0.,-1.));
#520=DIRECTION('',(0.,-1.,0.));
#521=DIRECTION('',(1.,0.,0.));
#522=DIRECTION('',(0.,1.,0.));
#523=DIRECTION('',(-1.,0.,0.));
#524=DIRECTION('',(0.,0.,-1.));
#525=DIRECTION('',(-1.,0.,0.));
#526=DIRECTION('',(0.0712018854508903,-0.0356009427254462,0.996826396312466));
#527=DIRECTION('',(0.,1.,0.));
#528=DIRECTION('',(-0.0712018854508903,-0.0356009427254452,-0.996826396312466));
#529=DIRECTION('',(0.997458699830735,0.,-0.0712470499879095));
#530=DIRECTION('',(-0.0712470499879095,0.,-0.997458699830735));
#531=DIRECTION('',(0.,1.,0.));
#532=DIRECTION('',(0.0712018854508901,0.0356009427254462,-0.996826396312466));
#533=DIRECTION('',(-0.0712018854508901,0.0356009427254452,0.996826396312466));
#534=DIRECTION('',(-0.997458699830735,0.,-0.0712470499879093));
#535=DIRECTION('',(-0.0712470499879093,0.,0.997458699830735));
#536=DIRECTION('',(1.,0.,0.));
#537=DIRECTION('',(1.,0.,0.));
#538=DIRECTION('',(-1.,0.,0.));
#539=DIRECTION('',(0.,0.,-1.));
#540=DIRECTION('',(-1.,0.,0.));
#541=DIRECTION('',(0.,-0.999362854347549,-0.0356915305124135));
#542=DIRECTION('',(0.,0.0356915305124135,-0.99936285434755));
#543=DIRECTION('',(0.,0.999362854347549,-0.0356915305124125));
#544=DIRECTION('',(0.,0.0356915305124125,0.99936285434755));
#545=DIRECTION('',(0.,-0.999362041402373,-0.0357142857142855));
#546=DIRECTION('',(0.,0.0357142857142855,-0.999362041402373));
#547=DIRECTION('',(0.,0.999362854347549,-0.0356915305124127));
#548=DIRECTION('',(0.,0.0356915305124127,0.99936285434755));
#549=DIRECTION('',(1.,0.,0.));
#550=DIRECTION('',(0.,0.,1.));
#551=DIRECTION('',(1.,0.,0.));
#552=DIRECTION('',(0.,0.,1.));
#553=DIRECTION('',(0.,-1.,0.));
#554=DIRECTION('',(0.,0.,-1.));
#555=DIRECTION('',(0.,-1.,0.));
#556=DIRECTION('',(0.,-1.,0.));
#557=DIRECTION('',(0.,0.,1.));
#558=DIRECTION('',(-1.,0.,0.));
#559=DIRECTION('',(0.,0.,1.));
#560=DIRECTION('',(-1.,0.,0.));
#561=DIRECTION('',(-1.,0.,0.));
#562=DIRECTION('',(0.,0.,1.));
#563=DIRECTION('',(0.,1.,0.));
#564=DIRECTION('',(0.,0.,1.));
#565=DIRECTION('',(0.,1.,0.));
#566=DIRECTION('',(-1.,0.,0.));
#567=DIRECTION('',(0.,-1.,0.));
#568=DIRECTION('',(1.,0.,0.));
#569=DIRECTION('',(0.,1.,0.));
#570=DIRECTION('',(0.,0.,1.));
#571=DIRECTION('',(1.,0.,0.));
#572=DIRECTION('',(0.,1.,0.));
#573=DIRECTION('',(1.,0.,0.));
#574=DIRECTION('',(0.,0.,-1.));
#575=DIRECTION('',(0.,1.,0.));
#576=DIRECTION('',(1.,0.,0.));
#577=DIRECTION('',(0.,-1.,0.));
#578=DIRECTION('',(-1.,0.,0.));
#579=DIRECTION('',(0.,0.,1.));
#580=DIRECTION('',(1.,0.,0.));
#581=DIRECTION('',(0.,0.,1.));
#582=DIRECTION('',(0.,0.,1.));
#583=DIRECTION('',(0.,-1.,0.));
#584=DIRECTION('',(0.,0.,-1.));
#585=DIRECTION('',(0.,0.,1.));
#586=DIRECTION('',(-1.,0.,0.));
#587=DIRECTION('',(0.,0.,1.));
#588=DIRECTION('',(0.,0.,1.));
#589=DIRECTION('',(1.,0.,0.));
#590=DIRECTION('',(0.,0.,-1.));
#591=DIRECTION('',(0.,1.,0.));
#592=DIRECTION('',(0.,0.,1.));
#593=CARTESIAN_POINT('',(0.,0.,0.));
#594=CARTESIAN_POINT('',(195.,125.,-7.7253096192216E-15));
#595=CARTESIAN_POINT('',(185.,125.,-1.77404426174253E-14));
#596=CARTESIAN_POINT('',(-185.,125.,-8.67361737988404E-16));
#597=CARTESIAN_POINT('',(185.,-130.,-2.16840434497101E-16));
#598=CARTESIAN_POINT('',(185.,-125.,-1.20271083244001E-14));
#599=CARTESIAN_POINT('',(195.,-125.,3.70135896682871E-15));
#600=CARTESIAN_POINT('',(-185.,-125.,4.08684646416571E-15));
#601=CARTESIAN_POINT('',(-185.,-130.,0.));
#602=CARTESIAN_POINT('',(0.,0.,0.));
#603=CARTESIAN_POINT('',(195.,130.,140.));
#604=CARTESIAN_POINT('',(195.,130.,140.));
#605=CARTESIAN_POINT('',(195.,129.996810207012,139.910685796332));
#606=CARTESIAN_POINT('',(195.,-130.,140.));
#607=CARTESIAN_POINT('',(195.,-130.,140.));
#608=CARTESIAN_POINT('',(195.,-130.,140.));
#609=CARTESIAN_POINT('',(195.,-130.,139.910685796332));
#610=CARTESIAN_POINT('',(195.,-130.,139.910685796332));
#611=CARTESIAN_POINT('',(195.,-130.,140.));
#612=CARTESIAN_POINT('',(195.,-130.,139.910685796332));
#613=CARTESIAN_POINT('',(-195.,-130.,139.910685796332));
#614=CARTESIAN_POINT('',(-195.,-130.,140.));
#615=CARTESIAN_POINT('',(-195.,-130.,140.));
#616=CARTESIAN_POINT('',(-195.,-130.,140.));
#617=CARTESIAN_POINT('',(-195.,-130.,140.));
#618=CARTESIAN_POINT('',(194.340529534043,129.66728533146,130.683989280879));
#619=CARTESIAN_POINT('',(195.,-130.,139.910685796332));
#620=CARTESIAN_POINT('',(195.,-130.,139.910685796332));
#621=CARTESIAN_POINT('',(-195.,-130.,139.642400437689));
#622=CARTESIAN_POINT('',(-195.,-129.990412263469,139.642400437689));
#623=CARTESIAN_POINT('',(-195.,129.98722858706,139.642400437689));
#624=CARTESIAN_POINT('',(-184.351973729762,124.67681448599,-9.0491943922683));
#625=CARTESIAN_POINT('',(-185.012714488206,-125.006345053787,0.177548165337685));
#626=CARTESIAN_POINT('',(-185.,-130.,0.));
#627=CARTESIAN_POINT('',(-195.,130.,140.));
#628=CARTESIAN_POINT('',(-195.,130.,140.));
#629=CARTESIAN_POINT('',(-195.,130.,140.));
#630=CARTESIAN_POINT('',(-195.,-125.,0.));
#631=CARTESIAN_POINT('',(-195.,130.,140.));
#632=CARTESIAN_POINT('',(-183.142857142857,0.,2.));
#633=CARTESIAN_POINT('',(-183.142857142857,123.071428571429,2.));
#634=CARTESIAN_POINT('',(-183.142857142857,-123.071428571429,2.));
#635=CARTESIAN_POINT('',(0.,-123.071428571429,2.));
#636=CARTESIAN_POINT('',(183.142857142857,-123.071428571429,2.));
#637=CARTESIAN_POINT('',(183.142857142857,0.,2.));
#638=CARTESIAN_POINT('',(183.142857142857,123.071428571429,2.));
#639=CARTESIAN_POINT('',(0.,123.071428571429,2.));
#640=CARTESIAN_POINT('',(0.,0.,2.));
#641=CARTESIAN_POINT('',(193.005069708492,-128.002534854246,140.070975918885));
#642=CARTESIAN_POINT('',(193.,-128.,140.));
#643=CARTESIAN_POINT('',(193.,-130.,140.));
#644=CARTESIAN_POINT('',(193.,128.,140.));
#645=CARTESIAN_POINT('',(192.346007604563,127.673003802281,130.844106463878));
#646=CARTESIAN_POINT('',(193.,-130.,140.));
#647=CARTESIAN_POINT('',(-193.,-130.,140.));
#648=CARTESIAN_POINT('',(-193.,-128.,140.));
#649=CARTESIAN_POINT('',(-193.,128.,140.));
#650=CARTESIAN_POINT('',(-183.017743979721,-123.008871989861,0.248415716096332));
#651=CARTESIAN_POINT('',(-182.358681875792,122.679340937896,-8.97845373891002));
#652=CARTESIAN_POINT('',(-183.,-130.,0.));
#653=CARTESIAN_POINT('',(195.,-128.,140.));
#654=CARTESIAN_POINT('',(195.,128.,140.));
#655=CARTESIAN_POINT('',(-193.,130.,140.));
#656=CARTESIAN_POINT('',(-193.,-130.,140.));
#657=CARTESIAN_POINT('',(195.,-123.,0.));
#658=CARTESIAN_POINT('',(195.,128.,140.));
#659=CARTESIAN_POINT('',(195.,-125.,0.));
#660=CARTESIAN_POINT('',(195.,130.,140.));
#661=CARTESIAN_POINT('',(205.,135.,140.));
#662=CARTESIAN_POINT('',(-205.,135.,140.));
#663=CARTESIAN_POINT('',(205.,135.,140.));
#664=CARTESIAN_POINT('',(-205.,135.,142.));
#665=CARTESIAN_POINT('',(-205.,135.,142.));
#666=CARTESIAN_POINT('',(205.,135.,142.));
#667=CARTESIAN_POINT('',(205.,135.,142.));
#668=CARTESIAN_POINT('',(205.,135.,142.));
#669=CARTESIAN_POINT('',(205.,135.,142.));
#670=CARTESIAN_POINT('',(205.,-135.,140.));
#671=CARTESIAN_POINT('',(205.,-135.,140.));
#672=CARTESIAN_POINT('',(205.,-135.,142.));
#673=CARTESIAN_POINT('',(205.,-135.,142.));
#674=CARTESIAN_POINT('',(205.,-135.,142.));
#675=CARTESIAN_POINT('',(205.,-135.,142.));
#676=CARTESIAN_POINT('',(-205.,-135.,140.));
#677=CARTESIAN_POINT('',(-205.,-135.,140.));
#678=CARTESIAN_POINT('',(-205.,-135.,142.));
#679=CARTESIAN_POINT('',(-205.,-135.,142.));
#680=CARTESIAN_POINT('',(-205.,-135.,142.));
#681=CARTESIAN_POINT('',(-205.,-135.,142.));
#682=CARTESIAN_POINT('',(-205.,135.,140.));
#683=CARTESIAN_POINT('',(195.,130.,140.));
#684=CARTESIAN_POINT('',(195.,130.,140.));
#685=CARTESIAN_POINT('',(-195.,130.,140.));
#686=CARTESIAN_POINT('',(-195.,130.,140.));
#687=CARTESIAN_POINT('',(-195.,-130.,140.));
#688=CARTESIAN_POINT('',(-195.,-130.,140.));
#689=CARTESIAN_POINT('',(195.,-130.,140.));
#690=CARTESIAN_POINT('',(195.,-130.,140.));
#691=CARTESIAN_POINT('',(0.,0.,140.));
#692=CARTESIAN_POINT('',(-205.,135.,142.));
#693=CARTESIAN_POINT('',(-205.,135.,142.));
#694=CARTESIAN_POINT('',(195.,130.,142.));
#695=CARTESIAN_POINT('',(195.,-130.,142.));
#696=CARTESIAN_POINT('',(195.,130.,142.));
#697=CARTESIAN_POINT('',(195.,-130.,142.));
#698=CARTESIAN_POINT('',(-195.,-130.,142.));
#699=CARTESIAN_POINT('',(-195.,-130.,142.));
#700=CARTESIAN_POINT('',(-195.,130.,142.));
#701=CARTESIAN_POINT('',(-195.,130.,142.));
#702=CARTESIAN_POINT('',(0.,0.,142.));
#703=CARTESIAN_POINT('',(195.,130.,2.));
#704=CARTESIAN_POINT('',(-195.,130.,2.));
#705=CARTESIAN_POINT('',(-195.,130.,2.));
#706=CARTESIAN_POINT('',(195.,-130.,2.));
#707=CARTESIAN_POINT('',(195.,130.,2.));
#708=CARTESIAN_POINT('',(-195.,-130.,2.));
#709=CARTESIAN_POINT('',(-195.,-130.,2.));
#710=CARTESIAN_POINT('',(195.,-130.,2.));
#711=MECHANICAL_DESIGN_GEOMETRIC_PRESENTATION_REPRESENTATION('',(#24,#25),
#712);
#712=(
GEOMETRIC_REPRESENTATION_CONTEXT(3)
GLOBAL_UNCERTAINTY_ASSIGNED_CONTEXT((#713))
GLOBAL_UNIT_ASSIGNED_CONTEXT((#719,#715,#714))
REPRESENTATION_CONTEXT('\X2\585165997B50\X0\','TOP_LEVEL_ASSEMBLY_PART')
);
#713=UNCERTAINTY_MEASURE_WITH_UNIT(LENGTH_MEASURE(2.E-5),#719,
'DISTANCE_ACCURACY_VALUE','Maximum Tolerance applied to model');
#714=(
NAMED_UNIT(*)
SI_UNIT($,.STERADIAN.)
SOLID_ANGLE_UNIT()
);
#715=(
CONVERSION_BASED_UNIT('DEGREE',#717)
NAMED_UNIT(#716)
PLANE_ANGLE_UNIT()
);
#716=DIMENSIONAL_EXPONENTS(0.,0.,0.,0.,0.,0.,0.);
#717=PLANE_ANGLE_MEASURE_WITH_UNIT(PLANE_ANGLE_MEASURE(0.0174532925),#718);
#718=(
NAMED_UNIT(*)
PLANE_ANGLE_UNIT()
SI_UNIT($,.RADIAN.)
);
#719=(
LENGTH_UNIT()
NAMED_UNIT(*)
SI_UNIT(.MILLI.,.METRE.)
);
ENDSEC;
END-ISO-10303-21;
