# Plastic crate geometry normalized to meters for FoundationPose.
# Source material/color intentionally ignored.
mtllib plastic_neutral.mtl
o plastic_crate
v -0.185000 -0.125000 0.000000
v -0.185000 0.125000 0.000000
v 0.185000 0.125000 0.000000
v 0.185000 -0.125000 0.000000
v 0.195000 0.129996810 0.139910686
v 0.195000 -0.130000 0.139910686
v -0.195000 0.129987229 0.139642400
v -0.195000 -0.129990412 0.139642400
v -0.195000 0.130000 0.140000
v 0.195000 0.130000 0.140000
v -0.195000 -0.130000 0.139910686
v -0.195000 -0.130000 0.140000
v 0.195000 -0.130000 0.140000
v 0.193000 0.128000 0.140000
v -0.193000 0.128000 0.140000
v -0.193000 -0.128000 0.140000
v 0.193000 -0.128000 0.140000
v 0.183142857 0.123071429 0.002000
v 0.183142857 -0.123071429 0.002000
v -0.183142857 0.123071429 0.002000
v -0.183142857 -0.123071429 0.002000
v 0.205000 0.135000 0.142000
v 0.205000 0.135000 0.140000
v -0.205000 0.135000 0.140000
v -0.205000 0.135000 0.142000
v 0.205000 -0.135000 0.142000
v 0.205000 -0.135000 0.140000
v -0.205000 -0.135000 0.142000
v -0.205000 -0.135000 0.140000
v 0.195000 0.130000 0.140000
v -0.195000 0.130000 0.140000
v 0.195000 -0.130000 0.140000
v -0.195000 -0.130000 0.140000
v 0.195000 0.130000 0.142000
v -0.195000 0.130000 0.142000
v -0.195000 -0.130000 0.142000
v 0.195000 -0.130000 0.142000
usemtl plastic_neutral
f 1 2 3
f 3 4 1
f 5 6 4
f 4 3 5
f 7 2 1
f 1 8 7
f 5 3 2
f 2 7 5
f 9 10 5
f 7 9 5
f 9 7 8
f 8 11 9
f 11 12 9
f 6 8 1
f 6 11 8
f 1 4 6
f 13 6 5
f 5 10 13
f 12 11 6
f 6 13 12
f 13 10 14
f 10 9 15
f 15 14 10
f 12 16 15
f 15 9 12
f 12 13 17
f 17 16 12
f 14 17 13
f 14 18 19
f 19 17 14
f 19 18 20
f 20 21 19
f 15 16 21
f 21 20 15
f 16 17 19
f 19 21 16
f 15 20 18
f 18 14 15
f 22 23 24
f 24 25 22
f 26 27 23
f 23 22 26
f 28 29 27
f 27 26 28
f 25 24 29
f 29 28 25
f 23 30 31
f 23 27 32
f 32 30 23
f 27 29 33
f 33 32 27
f 24 31 33
f 33 29 24
f 31 24 23
f 26 22 34
f 22 25 35
f 35 34 22
f 28 36 35
f 35 25 28
f 26 37 36
f 36 28 26
f 34 37 26
f 30 34 35
f 35 31 30
f 32 37 34
f 34 30 32
f 35 36 33
f 33 31 35
f 33 36 37
f 37 32 33
